<svg width="9" height="9" viewBox="0 0 9 9" fill="none" xmlns="http://www.w3.org/2000/svg">
<path d="M4.00386 0.232935C4.03637 -0.0776431 4.48853 -0.0776417 4.52104 0.232937L4.8564 3.43696C4.86919 3.55914 4.96575 3.65569 5.08793 3.66848L8.29195 4.00385C8.60253 4.03636 8.60253 4.48852 8.29195 4.52102L5.08792 4.85639C4.96575 4.86918 4.86919 4.96573 4.8564 5.08791L4.52104 8.29194C4.48853 8.60251 4.03637 8.60251 4.00386 8.29194L3.6685 5.08791C3.65571 4.96573 3.55915 4.86918 3.43698 4.85639L0.23295 4.52102C-0.0776278 4.48851 -0.0776264 4.03636 0.232952 4.00385L3.43698 3.66848C3.55916 3.65569 3.65571 3.55914 3.6685 3.43696L4.00386 0.232935Z" fill="#2D8EFE"/>
</svg>
